{
	"asset":{
		"generator":"Khronos glTF Blender I/O v3.5.30",
		"version":"2.0"
	},
	"scene":0,
	"scenes":[
		{
			"name":"Scene",
			"nodes":[
				5
			]
		}
	],
	"nodes":[
		{
			"mesh":0,
			"name":"Object_4"
		},
		{
			"mesh":1,
			"name":"Teto"
		},
		{
			"children":[
				0,
				1
			],
			"name":"Luca3D_Gazebo_1_0",
			"rotation":[
				0.21946309506893158,
				0,
				0,
				0.9756209254264832
			],
			"translation":[
				0,
				-7.3909759521484375e-06,
				0
			]
		},
		{
			"children":[
				2
			],
			"name":"GLTF_SceneRootNode",
			"rotation":[
				0.70710688829422,
				0,
				0,
				0.7071066498756409
			]
		},
		{
			"children":[
				3
			],
			"name":"root"
		},
		{
			"children":[
				4
			],
			"name":"Sketchfab_model",
			"rotation":[
				-0.70710688829422,
				0,
				0,
				0.7071066498756409
			]
		}
	],
	"materials":[
		{
			"name":"Luca3D_Gazebo_1",
			"normalTexture":{
				"index":0
			},
			"pbrMetallicRoughness":{
				"baseColorTexture":{
					"index":1
				},
				"metallicRoughnessTexture":{
					"index":2
				}
			}
		}
	],
	"meshes":[
		{
			"name":"Object_0",
			"primitives":[
				{
					"attributes":{
						"POSITION":0,
						"TEXCOORD_0":1,
						"TEXCOORD_1":2,
						"TEXCOORD_2":3,
						"TEXCOORD_3":4,
						"NORMAL":5
					},
					"indices":6,
					"material":0
				}
			]
		},
		{
			"name":"Object_0.001",
			"primitives":[
				{
					"attributes":{
						"POSITION":7,
						"TEXCOORD_0":8,
						"TEXCOORD_1":9,
						"TEXCOORD_2":10,
						"TEXCOORD_3":11,
						"NORMAL":12
					},
					"indices":13,
					"material":0
				}
			]
		}
	],
	"textures":[
		{
			"sampler":0,
			"source":0
		},
		{
			"sampler":0,
			"source":1
		},
		{
			"sampler":0,
			"source":2
		}
	],
	"images":[
		{
			"mimeType":"image/png",
			"name":"Luca3D_Gazebo_1_normal",
			"uri":"Luca3D_Gazebo_1_normal.png"
		},
		{
			"mimeType":"image/png",
			"name":"Luca3D_Gazebo_1_baseColor",
			"uri":"Luca3D_Gazebo_1_baseColor.png"
		},
		{
			"mimeType":"image/png",
			"name":"Luca3D_Gazebo_1_metallicRoughness",
			"uri":"Luca3D_Gazebo_1_metallicRoughness.png"
		}
	],
	"accessors":[
		{
			"bufferView":0,
			"componentType":5126,
			"count":6635,
			"max":[
				1.323613166809082,
				2.4012765884399414,
				1.0096564292907715
			],
			"min":[
				-1.3236132860183716,
				-0.47777223587036133,
				-2.2298295497894287
			],
			"type":"VEC3"
		},
		{
			"bufferView":1,
			"componentType":5126,
			"count":6635,
			"type":"VEC2"
		},
		{
			"bufferView":2,
			"componentType":5126,
			"count":6635,
			"type":"VEC2"
		},
		{
			"bufferView":3,
			"componentType":5126,
			"count":6635,
			"type":"VEC2"
		},
		{
			"bufferView":4,
			"componentType":5126,
			"count":6635,
			"type":"VEC2"
		},
		{
			"bufferView":5,
			"componentType":5126,
			"count":6635,
			"type":"VEC3"
		},
		{
			"bufferView":6,
			"componentType":5123,
			"count":9555,
			"type":"SCALAR"
		},
		{
			"bufferView":7,
			"componentType":5126,
			"count":6,
			"max":[
				1.3148918151855469,
				1.061669111251831,
				-2.229407548904419
			],
			"min":[
				-1.3148921728134155,
				1.0574476718902588,
				-2.2298295497894287
			],
			"type":"VEC3"
		},
		{
			"bufferView":8,
			"componentType":5126,
			"count":6,
			"type":"VEC2"
		},
		{
			"bufferView":9,
			"componentType":5126,
			"count":6,
			"type":"VEC2"
		},
		{
			"bufferView":10,
			"componentType":5126,
			"count":6,
			"type":"VEC2"
		},
		{
			"bufferView":11,
			"componentType":5126,
			"count":6,
			"type":"VEC2"
		},
		{
			"bufferView":12,
			"componentType":5126,
			"count":6,
			"type":"VEC3"
		},
		{
			"bufferView":13,
			"componentType":5123,
			"count":6,
			"type":"SCALAR"
		}
	],
	"bufferViews":[
		{
			"buffer":0,
			"byteLength":79620,
			"byteOffset":0,
			"target":34962
		},
		{
			"buffer":0,
			"byteLength":53080,
			"byteOffset":79620,
			"target":34962
		},
		{
			"buffer":0,
			"byteLength":53080,
			"byteOffset":132700,
			"target":34962
		},
		{
			"buffer":0,
			"byteLength":53080,
			"byteOffset":185780,
			"target":34962
		},
		{
			"buffer":0,
			"byteLength":53080,
			"byteOffset":238860,
			"target":34962
		},
		{
			"buffer":0,
			"byteLength":79620,
			"byteOffset":291940,
			"target":34962
		},
		{
			"buffer":0,
			"byteLength":19110,
			"byteOffset":371560,
			"target":34963
		},
		{
			"buffer":0,
			"byteLength":72,
			"byteOffset":390672,
			"target":34962
		},
		{
			"buffer":0,
			"byteLength":48,
			"byteOffset":390744,
			"target":34962
		},
		{
			"buffer":0,
			"byteLength":48,
			"byteOffset":390792,
			"target":34962
		},
		{
			"buffer":0,
			"byteLength":48,
			"byteOffset":390840,
			"target":34962
		},
		{
			"buffer":0,
			"byteLength":48,
			"byteOffset":390888,
			"target":34962
		},
		{
			"buffer":0,
			"byteLength":72,
			"byteOffset":390936,
			"target":34962
		},
		{
			"buffer":0,
			"byteLength":12,
			"byteOffset":391008,
			"target":34963
		}
	],
	"samplers":[
		{
			"magFilter":9729,
			"minFilter":9987
		}
	],
	"buffers":[
		{
			"byteLength":391020,
			"uri":"uj.bin"
		}
	]
}
