{
  "accessors": [
    {
      "bufferView": 2,
      "componentType": 5126,
      "count": 6000,
      "max": [
        1.323613166809082,
        2.4012765884399414,
        1.0096564292907715
      ],
      "min": [
        -1.3236132860183716,
        -0.47777223587036133,
        -2.2298295497894287
      ],
      "type": "VEC3"
    },
    {
      "bufferView": 2,
      "byteOffset": 72000,
      "componentType": 5126,
      "count": 6000,
      "max": [
        1.0,
        1.0,
        1.0
      ],
      "min": [
        -1.0,
        -1.0,
        -1.0
      ],
      "type": "VEC3"
    },
    {
      "bufferView": 3,
      "componentType": 5126,
      "count": 6000,
      "max": [
        1.0,
        1.0,
        0.9999983310699463,
        1.0
      ],
      "min": [
        -1.0,
        -0.9999975562095642,
        -1.0,
        -1.0
      ],
      "type": "VEC4"
    },
    {
      "bufferView": 1,
      "componentType": 5126,
      "count": 6000,
      "max": [
        0.9989092946052551,
        0.9991584420204163
      ],
      "min": [
        0.0008416155469603837,
        0.0008416155469603837
      ],
      "type": "VEC2"
    },
    {
      "bufferView": 1,
      "byteOffset": 48000,
      "componentType": 5126,
      "count": 6000,
      "max": [
        0.9989092946052551,
        0.9991584420204163
      ],
      "min": [
        0.0008416155469603837,
        0.0008416155469603837
      ],
      "type": "VEC2"
    },
    {
      "bufferView": 1,
      "byteOffset": 96000,
      "componentType": 5126,
      "count": 6000,
      "max": [
        0.9989092946052551,
        0.9991584420204163
      ],
      "min": [
        0.0008416155469603837,
        0.0008416155469603837
      ],
      "type": "VEC2"
    },
    {
      "bufferView": 1,
      "byteOffset": 144000,
      "componentType": 5126,
      "count": 6000,
      "max": [
        0.9989092946052551,
        0.9991584420204163
      ],
      "min": [
        0.0008416155469603837,
        0.0008416155469603837
      ],
      "type": "VEC2"
    },
    {
      "bufferView": 0,
      "componentType": 5125,
      "count": 9561,
      "type": "SCALAR"
    }
  ],
  "asset": {
    "extras": {
      "author": "Elasta Kristya (https://sketchfab.com/luca3d)",
      "license": "CC-BY-4.0 (http://creativecommons.org/licenses/by/4.0/)",
      "source": "https://sketchfab.com/3d-models/gazebo-1-9e1f69438b844f9e852d056892d29241",
      "title": "Gazebo 1"
    },
    "generator": "Sketchfab-12.68.0",
    "version": "2.0"
  },
  "bufferViews": [
    {
      "buffer": 0,
      "byteLength": 38244,
      "name": "floatBufferViews",
      "target": 34963
    },
    {
      "buffer": 0,
      "byteLength": 192000,
      "byteOffset": 38244,
      "byteStride": 8,
      "name": "floatBufferViews",
      "target": 34962
    },
    {
      "buffer": 0,
      "byteLength": 144000,
      "byteOffset": 230244,
      "byteStride": 12,
      "name": "floatBufferViews",
      "target": 34962
    },
    {
      "buffer": 0,
      "byteLength": 96000,
      "byteOffset": 374244,
      "byteStride": 16,
      "name": "floatBufferViews",
      "target": 34962
    }
  ],
  "buffers": [
    {
      "byteLength": 470244,
      "uri": "scene.bin"
    }
  ],
  "images": [
    {
      "uri": "textures/Luca3D_Gazebo_1_baseColor.png"
    },
    {
      "uri": "textures/Luca3D_Gazebo_1_metallicRoughness.png"
    },
    {
      "uri": "textures/Luca3D_Gazebo_1_normal.png"
    }
  ],
  "materials": [
    {
      "name": "Luca3D_Gazebo_1",
      "normalTexture": {
        "index": 2
      },
      "pbrMetallicRoughness": {
        "baseColorTexture": {
          "index": 0
        },
        "metallicRoughnessTexture": {
          "index": 1
        }
      }
    }
  ],
  "meshes": [
    {
      "name": "Object_0",
      "primitives": [
        {
          "attributes": {
            "NORMAL": 1,
            "POSITION": 0,
            "TANGENT": 2,
            "TEXCOORD_0": 3,
            "TEXCOORD_1": 4,
            "TEXCOORD_2": 5,
            "TEXCOORD_3": 6
          },
          "indices": 7,
          "material": 0,
          "mode": 4
        }
      ]
    }
  ],
  "nodes": [
    {
      "children": [
        1
      ],
      "matrix": [
        1.0,
        0.0,
        0.0,
        0.0,
        0.0,
        2.220446049250313e-16,
        -1.0,
        0.0,
        0.0,
        1.0,
        2.220446049250313e-16,
        0.0,
        0.0,
        0.0,
        0.0,
        1.0
      ],
      "name": "Sketchfab_model"
    },
    {
      "children": [
        2
      ],
      "name": "root"
    },
    {
      "children": [
        3
      ],
      "matrix": [
        1.0,
        0.0,
        0.0,
        0.0,
        0.0,
        2.220446049250313e-16,
        1.0,
        0.0,
        0.0,
        -1.0,
        2.220446049250313e-16,
        0.0,
        0.0,
        0.0,
        0.0,
        1.0
      ],
      "name": "GLTF_SceneRootNode"
    },
    {
      "children": [
        4
      ],
      "matrix": [
        1.0,
        0.0,
        0.0,
        0.0,
        0.0,
        0.9036719876965356,
        0.4282253363039051,
        0.0,
        0.0,
        -0.4282253363039051,
        0.9036719876965356,
        0.0,
        0.0,
        -7.3909759521484375e-06,
        0.0,
        1.0
      ],
      "name": "Luca3D_Gazebo_1_0"
    },
    {
      "mesh": 0,
      "name": "Object_4"
    }
  ],
  "samplers": [
    {
      "magFilter": 9729,
      "minFilter": 9987,
      "wrapS": 10497,
      "wrapT": 10497
    }
  ],
  "scene": 0,
  "scenes": [
    {
      "name": "Sketchfab_Scene",
      "nodes": [
        0
      ]
    }
  ],
  "textures": [
    {
      "sampler": 0,
      "source": 0
    },
    {
      "sampler": 0,
      "source": 1
    },
    {
      "sampler": 0,
      "source": 2
    }
  ]
}
